PathFileType	4	(X/Y/Z)	C:/Users/opensim2020/Desktop/walking_exp_matlab/subject03_walking04_static.trc																																																																																																																																																							
DataRate	CameraRate	NumFrames	NumMarkers	Units	OrigDataRate	OrigDataStartFrame	OrigNumFrames																																																																																																																																																			
100	100	5	51	mm	100	281	196																																																																																																																																																			
Frame#	Time	LFHD			RFHD			LBHD			RBHD			C7			T10			CLAV			STRN			RBAK			LSHO			LUPA			LELB			LFRM			LWRA			LWRB			LFIN			RSHO			RUPA			RELB			RFRM			RWRA			RWRB			RFIN			LASI			RASI			LPSI			RPSI			LTHI			LKNE			LTIB			LANK			LHEE			LTOE			RTHI			RKNE			RTIB			RANK			RHEE			RTOE			*39			*40			*41			*42			*43			*44			*45			*46			*47			*48			*49			*50		
		X1	Y1	Z1	X2	Y2	Z2	X3	Y3	Z3	X4	Y4	Z4	X5	Y5	Z5	X6	Y6	Z6	X7	Y7	Z7	X8	Y8	Z8	X9	Y9	Z9	X10	Y10	Z10	X11	Y11	Z11	X12	Y12	Z12	X13	Y13	Z13	X14	Y14	Z14	X15	Y15	Z15	X16	Y16	Z16	X17	Y17	Z17	X18	Y18	Z18	X19	Y19	Z19	X20	Y20	Z20	X21	Y21	Z21	X22	Y22	Z22	X23	Y23	Z23	X24	Y24	Z24	X25	Y25	Z25	X26	Y26	Z26	X27	Y27	Z27	X28	Y28	Z28	X29	Y29	Z29	X30	Y30	Z30	X31	Y31	Z31	X32	Y32	Z32	X33	Y33	Z33	X34	Y34	Z34	X35	Y35	Z35	X36	Y36	Z36	X37	Y37	Z37	X38	Y38	Z38	X39	Y39	Z39	X40	Y40	Z40	X41	Y41	Z41	X42	Y42	Z42	X43	Y43	Z43	X44	Y44	Z44	X45	Y45	Z45	X46	Y46	Z46	X47	Y47	Z47	X48	Y48	Z48	X49	Y49	Z49	X50	Y50	Z50	X51	Y51	Z51
																																																																																																																																																										
99	0.98	-347.36145	1630.87769	-672.63263	-377.13632	1643.67786	-543.12653	-475.08414	1589.8407	-693.33038	-499.77762	1602.71521	-565.34601	-516.36835	1426.48035	-626.29779	-535.07361	1114.81958	-616.91559	-388.20932	1361.77136	-609.84387	-334.17322	1197.71155	-607.81378	-568.33429	1248.01514	-535.20789	-436.06161	1397.21118	-769.93707	-450.58951	1206.99756	-853.21655	-447.22253	1086.88269	-880.2511	-415.60544	961.57245	-898.64087	-382.478	844.00885	-886.50201	-417.86349	850.60248	-929.63477	-393.88293	768.88806	-931.78241	-469.56854	1389.68665	-461.25568	-477.2793	1179.38672	-365.69571	-462.1813	1072.09607	-331.73587	-441.04675	939.07782	-303.28558	-398.07977	842.79089	-313.6279	-440.50192	840.81628	-279.24249	-412.73062	770.84711	-273.12848	-378.7084	945.90094	-719.48999	-392.12457	946.57794	-485.59036	-542.88171	979.15283	-681.01904	-548.19666	987.10034	-531.8042	-449.42395	646.95056	-771.98358	-458.57813	469.52911	-735.25385	-516.26172	285.54434	-754.36688	-539.23621	73.95067	-729.69586	-580.73212	36.93956	-696.95386	-386.99185	34.43055	-709.15125	-466.92136	653.62476	-440.22641	-463.07764	474.12976	-473.27222	-517.59607	292.86429	-462.25705	-546.82678	76.28805	-501.4151	-587.31586	42.05175	-552.66406	-404.86542	36.41323	-500.45261	-436.87952	1697.65747	-645.77966	NaN	NaN	NaN	NaN	NaN	NaN	NaN	NaN	NaN	NaN	NaN	NaN	NaN	NaN	NaN	NaN	NaN	NaN	NaN	NaN	NaN	NaN	NaN	NaN	NaN	NaN	NaN	NaN	NaN	NaN	NaN	NaN	NaN
100	0.99	-347.12756	1630.85156	-672.81653	-376.92822	1643.67493	-543.33398	-474.87509	1589.81628	-693.52454	-499.55588	1602.7345	-565.55322	-516.17236	1426.45886	-626.44916	-534.81787	1114.8103	-617.08392	-388.00897	1361.77771	-609.91168	-333.94891	1197.70154	-607.83441	-568.18317	1247.96399	-535.3692	-435.74762	1397.16516	-770.04987	-450.27264	1206.97742	-853.33368	-446.76678	1086.82764	-880.30377	-415.16254	961.53632	-898.63348	-381.93045	843.9339	-886.2442	-417.20364	850.5556	-929.6806	-393.233	768.8299	-931.65686	-469.52295	1389.70288	-461.39496	-477.22629	1179.39404	-365.76926	-462.13718	1072.10596	-331.79843	-441.03174	939.11066	-303.2959	-397.89514	842.75464	-313.63742	-440.46866	840.82495	-279.2048	-412.67075	770.85547	-273.07605	-378.43723	945.84186	-719.5166	-391.95337	946.56714	-485.62393	-542.55463	979.14319	-681.04633	-548.03503	987.08826	-531.81738	-449.20587	646.92639	-772.03162	-458.44901	469.51599	-735.27441	-516.17584	285.55402	-754.41321	-539.20984	73.99152	-729.69287	-580.72882	36.96283	-696.98322	-386.98224	34.44411	-709.17389	-466.79605	653.62128	-440.25531	-462.94238	474.11383	-473.29559	-517.52338	292.87546	-462.28546	-546.75006	76.34481	-501.3681	-587.41235	42.12713	-552.93616	-404.86826	36.38968	-500.45871	-436.67471	1697.67395	-646.09833	NaN	NaN	NaN	NaN	NaN	NaN	NaN	NaN	NaN	NaN	NaN	NaN	NaN	NaN	NaN	NaN	NaN	NaN	NaN	NaN	NaN	NaN	NaN	NaN	NaN	NaN	NaN	NaN	NaN	NaN	NaN	NaN	NaN
101	1	-346.91467	1630.81775	-673.03534	-376.7637	1643.73767	-543.52362	-474.66296	1589.77612	-693.6994	-499.35236	1602.76172	-565.78815	-515.9176	1426.37195	-626.58954	-534.5874	1114.77332	-617.203	-387.80045	1361.73938	-609.98242	-333.72806	1197.70142	-607.80731	-568.00122	1247.9198	-535.59375	-435.40915	1397.09351	-770.14655	-449.91919	1206.87646	-853.41406	-446.38199	1086.70459	-880.32855	-414.66574	961.45874	-898.58942	-381.3974	843.87781	-886.14166	-416.60895	850.4483	-929.5957	-392.51505	768.74957	-931.40613	-469.45316	1389.7002	-461.48773	-477.12393	1179.41418	-365.86099	-462.08139	1072.13794	-331.83481	-440.96658	939.11725	-303.2919	-397.966	842.84387	-313.51352	-440.42474	840.88721	-279.20041	-412.65363	770.91028	-272.99286	-378.13092	945.8504	-719.54626	-391.77396	946.55072	-485.68524	-542.31372	979.15295	-681.19391	-547.80865	987.07532	-531.96838	-448.98303	646.90515	-772.06152	-458.31339	469.49506	-735.33722	-516.06561	285.54236	-754.44617	-539.1958	73.9892	-729.7088	-580.71527	36.9445	-696.97931	-386.98203	34.41657	-709.16895	-466.69351	653.61646	-440.2995	-462.828	474.11746	-473.37476	-517.4566	292.87341	-462.32281	-546.73492	76.38125	-501.38165	-587.40649	42.13839	-552.96442	-404.86731	36.40556	-500.45593	-436.46655	1697.64355	-646.27734	NaN	NaN	NaN	NaN	NaN	NaN	NaN	NaN	NaN	NaN	NaN	NaN	NaN	NaN	NaN	NaN	NaN	NaN	NaN	NaN	NaN	NaN	NaN	NaN	NaN	NaN	NaN	NaN	NaN	NaN	NaN	NaN	NaN
102	1.01	-346.69354	1630.79211	-673.25641	-376.62238	1643.75525	-543.75293	-474.42859	1589.7334	-693.92981	-499.1601	1602.79297	-565.98358	-515.72748	1426.34753	-626.78442	-534.39331	1114.80286	-617.3631	-387.61453	1361.71643	-610.03302	-333.49228	1197.68188	-607.79309	-567.85449	1247.8905	-535.78888	-435.07938	1397.02295	-770.25201	-449.57458	1206.82642	-853.60492	-445.992	1086.62524	-880.44153	-414.2005	961.37933	-898.57794	-380.87607	843.80615	-886.06262	-416.11206	850.35162	-929.52264	-391.90485	768.66364	-931.31079	-469.38034	1389.64417	-461.61096	-477.09943	1179.37073	-365.96326	-462.04669	1072.11609	-331.89038	-440.96375	939.14581	-303.25763	-397.92981	842.87366	-313.45996	-440.41696	840.90582	-279.14764	-412.63913	770.94427	-272.90561	-377.89764	945.81415	-719.61627	-391.5979	946.52051	-485.76501	-542.04083	979.10089	-681.20068	-547.67627	987.08392	-531.93085	-448.79562	646.86243	-772.07111	-458.19144	469.47104	-735.33148	-516.01263	285.52979	-754.44	-539.20117	73.99023	-729.69348	-580.72803	36.95385	-696.95404	-386.96973	34.39977	-709.15906	-466.56216	653.66522	-440.31931	-462.7374	474.08618	-473.45563	-517.37543	292.87982	-462.34622	-546.70111	76.36707	-501.42273	-587.39673	42.17896	-552.95044	-404.86142	36.39421	-500.47067	-436.25916	1697.65381	-646.57733	NaN	NaN	NaN	NaN	NaN	NaN	NaN	NaN	NaN	NaN	NaN	NaN	NaN	NaN	NaN	NaN	NaN	NaN	NaN	NaN	NaN	NaN	NaN	NaN	NaN	NaN	NaN	NaN	NaN	NaN	NaN	NaN	NaN
103	1.02	-346.45535	1630.76147	-673.45605	-376.37784	1643.77881	-543.93671	-474.23441	1589.69336	-694.1488	-498.95587	1602.8042	-566.20062	-515.51697	1426.33813	-627.00214	-534.19354	1114.75024	-617.41595	-387.42926	1361.71643	-610.09558	-333.27472	1197.7113	-607.79602	-567.66943	1247.83325	-535.96942	-434.76303	1396.95862	-770.34644	-449.17188	1206.74524	-853.66815	-445.64041	1086.56995	-880.52344	-413.7233	961.28394	-898.57959	-380.42505	843.76917	-886.07605	-415.62265	850.24017	-929.46582	-391.32712	768.60785	-931.25739	-469.32449	1389.66211	-461.73584	-477.05527	1179.40576	-366.05774	-462.0253	1072.16516	-331.92297	-440.95102	939.18298	-303.25772	-397.84961	842.88989	-313.39282	-440.38409	840.96625	-279.08157	-412.56494	770.9978	-272.82764	-377.60654	945.80048	-719.62878	-391.37292	946.5202	-485.82623	-541.88116	979.1463	-681.45337	-547.48987	987.10199	-532.01746	-448.59198	646.85223	-772.10217	-458.09192	469.4538	-735.36237	-515.96661	285.57089	-754.47504	-539.2005	73.96761	-729.72131	-580.72534	36.96918	-696.92572	-386.97049	34.43092	-709.17114	-466.41696	653.65118	-440.38391	-462.60724	474.11588	-473.46381	-517.31732	292.9173	-462.40015	-546.73505	76.39188	-501.41211	-587.27832	42.08294	-552.71899	-404.87708	36.39981	-500.46753	-436.02722	1697.55139	-646.8576	NaN	NaN	NaN	NaN	NaN	NaN	NaN	NaN	NaN	NaN	NaN	NaN	NaN	NaN	NaN	NaN	NaN	NaN	NaN	NaN	NaN	NaN	NaN	NaN	NaN	NaN	NaN	NaN	NaN	NaN	NaN	NaN	NaN
